<?xml version="1.0" standalone="no"?>
<!DOCTYPE svg PUBLIC "-//W3C//DTD SVG 20010904//EN"
 "http://www.w3.org/TR/2001/REC-SVG-20010904/DTD/svg10.dtd">
<svg version="1.0" xmlns="http://www.w3.org/2000/svg"
 width="286.000000pt" height="286.000000pt" viewBox="0 0 286.000000 286.000000"
 preserveAspectRatio="xMidYMid meet">
<metadata>
Created by potrace 1.14, written by Peter Selinger 2001-2017
</metadata>
<g transform="translate(0.000000,286.000000) scale(0.100000,-0.100000)"
fill="#000000" stroke="none">
<path d="M1770 2608 c0 -7 -2 -94 -3 -193 l-2 -180 -97 -3 -97 -3 -3 -132 -3
-132 -72 -43 -73 -43 1 -657 c0 -361 0 -663 -1 -669 0 -7 -9 -13 -20 -13 -20
0 -20 7 -20 540 l0 540 -105 0 -105 0 0 49 c0 30 -5 50 -12 53 -11 3 -214 3
-256 -1 -10 -1 -13 -15 -11 -48 l3 -48 -42 -3 -42 -3 0 -560 c0 -552 0 -559
-20 -559 -11 0 -20 6 -21 13 -1 6 -2 165 -3 352 l-1 340 -232 3 -233 2 0 -408
0 -409 -69 -27 c-74 -29 -157 -83 -146 -94 9 -10 2705 -9 2705 0 0 16 -84 68
-151 94 l-69 27 0 444 0 443 -55 0 -55 0 0 44 0 44 -119 1 -120 0 -3 -42 -3
-42 -85 -5 -85 -5 0 -384 c0 -358 -1 -384 -17 -387 -10 -1 -19 1 -19 4 -1 4
-2 388 -3 854 -1 465 -3 849 -6 852 -3 2 -30 -11 -60 -29 -30 -19 -58 -35 -62
-35 -5 0 -8 18 -8 40 l0 40 -40 0 -40 0 0 189 c0 116 -4 192 -10 196 -5 3 -10
0 -10 -7z m-160 -836 l0 -39 -50 0 c-50 -1 -50 -1 -50 31 0 41 1 42 55 44 l45
2 0 -38z m152 2 c5 -41 -3 -47 -58 -42 -31 2 -38 7 -41 28 -6 41 3 50 51 50
43 0 44 -1 48 -36z m148 -9 c0 -35 0 -35 -45 -35 -45 0 -45 0 -45 35 0 35 0
35 45 35 45 0 45 0 45 -35z m-300 -160 l0 -35 -50 0 -50 0 0 35 0 35 50 0 50
0 0 -35z m150 0 c0 -35 0 -35 -45 -35 -45 0 -45 0 -45 35 0 35 0 35 45 35 45
0 45 0 45 -35z m150 0 c0 -35 0 -35 -45 -35 -45 0 -45 0 -45 35 0 35 0 35 45
35 45 0 45 0 45 -35z m-300 -165 l0 -40 -50 0 -50 0 0 40 0 40 50 0 50 0 0
-40z m150 5 c0 -35 0 -35 -45 -35 -45 0 -45 0 -45 35 0 35 0 35 45 35 45 0 45
0 45 -35z m150 0 c0 -35 0 -35 -45 -35 -45 0 -45 0 -45 35 0 35 0 35 45 35 45
0 45 0 45 -35z m-930 -55 l0 -49 -37 2 c-36 2 -38 4 -40 37 -2 52 3 60 42 60
l35 0 0 -50z m150 -1 l0 -50 -37 3 c-36 4 -38 6 -37 36 2 62 2 62 39 62 l35 0
0 -51z m155 2 c0 -45 0 -45 -37 -49 l-38 -3 0 51 0 51 38 -3 c37 -3 37 -3 37
-47z m325 -116 l0 -35 -50 0 -50 0 0 35 0 35 50 0 50 0 0 -35z m150 0 c0 -35
0 -35 -45 -35 -45 0 -45 0 -45 35 0 35 0 35 45 35 45 0 45 0 45 -35z m150 0
c0 -35 0 -35 -45 -35 -45 0 -45 0 -45 35 0 35 0 35 45 35 45 0 45 0 45 -35z
m-926 -85 l1 -45 -42 -3 -43 -3 0 49 0 50 42 -2 41 -1 1 -45z m147 36 c1 -6 2
-28 3 -49 l2 -38 -41 3 -40 3 -1 47 -1 48 38 -2 c22 -1 40 -6 40 -12z m146 6
c7 -4 11 -26 10 -50 l-2 -43 -40 3 c-42 3 -43 6 -36 83 1 16 47 21 68 7z m333
-122 l0 -40 -50 0 -50 0 0 40 0 40 50 0 50 0 0 -40z m150 5 c0 -35 0 -35 -45
-35 -45 0 -45 0 -45 35 0 35 0 35 45 35 45 0 45 0 45 -35z m150 0 c0 -35 0
-35 -45 -35 -45 0 -45 0 -45 35 0 35 0 35 45 35 45 0 45 0 45 -35z m580 -35
l0 -50 -35 0 -35 0 0 50 0 50 35 0 35 0 0 -50z m-300 -5 c0 -43 -1 -45 -30
-45 -29 0 -30 2 -30 45 0 43 1 45 30 45 29 0 30 -2 30 -45z m150 0 c0 -45 0
-45 -35 -45 -35 0 -35 0 -35 45 0 45 0 45 35 45 35 0 35 0 35 -45z m-1850 -9
l0 -33 -60 0 -60 0 0 33 0 32 60 1 60 0 0 -33z m205 -1 l0 -30 -60 0 c-49 0
-60 4 -63 18 -7 37 4 44 65 43 58 -1 58 -1 58 -31z m286 -45 c1 -8 2 -31 2
-50 0 -34 -1 -35 -39 -35 -39 0 -39 0 -42 44 -4 49 2 56 47 56 21 1 31 -4 32
-15z m155 -28 c-2 -47 -10 -59 -38 -58 -37 2 -48 15 -48 56 0 41 11 49 61 42
22 -3 26 -8 25 -40z m147 39 c4 0 6 -22 5 -48 l-3 -47 -37 -1 c-21 -1 -39 3
-39 9 -12 84 1 99 74 87z m477 -87 c0 -34 -1 -34 -45 -34 -45 0 -45 0 -45 34
0 38 7 43 56 38 31 -4 34 -7 34 -38z m-150 -4 l0 -40 -50 0 -50 0 0 40 0 40
50 0 50 0 0 -40z m300 5 c0 -35 0 -35 -45 -35 -45 0 -45 0 -45 35 0 35 0 35
45 35 45 0 45 0 45 -35z m-1419 3 c3 -5 4 -20 2 -32 -4 -21 -10 -23 -64 -24
l-59 0 0 32 0 32 58 1 c31 0 60 -4 63 -9z m204 -23 l0 -30 -62 -1 c-62 -1 -63
0 -63 26 0 15 3 29 6 32 3 3 31 5 62 5 56 -2 57 -2 57 -32z m1495 -19 c0 -33
-4 -45 -17 -48 -33 -9 -43 3 -43 48 0 42 1 44 30 44 29 0 30 -2 30 -44z m150
-1 c0 -45 0 -45 -35 -45 -35 0 -35 0 -35 45 0 45 0 45 35 45 35 0 35 0 35 -45z
m150 0 c0 -45 0 -45 -35 -45 -35 0 -35 0 -35 45 0 45 0 45 35 45 35 0 35 0 35
-45z m-1509 -85 c0 -5 1 -27 2 -47 0 -38 0 -38 -41 -41 l-42 -3 0 50 0 51 40
0 c22 0 40 -4 41 -10z m154 -37 l-1 -48 -39 0 -40 0 -3 48 -3 47 43 0 44 0 -1
-47z m152 0 c-2 -48 -2 -48 -39 -51 -21 -2 -39 0 -39 5 -1 4 -2 27 -3 51 l-2
42 42 0 43 0 -2 -47z m-796 12 c10 -35 0 -42 -62 -43 l-59 0 0 32 0 33 58 -1
c48 0 58 -3 63 -21z m207 -7 c4 -32 -19 -41 -84 -36 -28 2 -40 8 -42 21 -7 36
4 43 64 42 57 0 59 -1 62 -27z m1492 -58 c0 -38 -2 -40 -30 -40 -28 0 -30 2
-30 40 0 38 2 40 30 40 28 0 30 -2 30 -40z m150 -5 c0 -45 0 -45 -35 -45 -35
0 -35 0 -35 45 0 45 0 45 35 45 35 0 35 0 35 -45z m150 0 c0 -45 0 -45 -35
-45 -35 0 -35 0 -35 45 0 45 0 45 35 45 35 0 35 0 35 -45z m-1994 -83 l3 -33
-67 3 c-70 3 -70 3 -63 57 1 6 29 9 63 8 l62 -2 2 -33z m202 1 l3 -33 -65 0
-66 0 0 34 0 33 63 -1 62 -1 3 -32z"/>
</g>
</svg>
