<?xml version="1.0" standalone="no"?>
<!DOCTYPE svg PUBLIC "-//W3C//DTD SVG 20010904//EN"
 "http://www.w3.org/TR/2001/REC-SVG-20010904/DTD/svg10.dtd">
<svg version="1.0" xmlns="http://www.w3.org/2000/svg"
 width="300.000000pt" height="300.000000pt" viewBox="0 0 300.000000 300.000000"
 preserveAspectRatio="xMidYMid meet">
<metadata>
Created by potrace 1.14, written by Peter Selinger 2001-2017
</metadata>
<g transform="translate(0.000000,300.000000) scale(0.100000,-0.100000)"
fill="#000000" stroke="none">
<path d="M1475 2938 c-3 -8 -4 -81 -3 -163 3 -142 4 -150 23 -150 19 0 20 7
20 160 0 144 -2 160 -18 163 -9 2 -19 -3 -22 -10z"/>
<path d="M463 2514 c-4 -11 27 -49 105 -127 106 -106 113 -111 129 -94 17 16
12 23 -92 127 -60 61 -116 110 -123 110 -7 0 -15 -7 -19 -16z"/>
<path d="M2385 2420 c-104 -104 -109 -111 -92 -127 16 -17 23 -12 127 92 104
104 125 136 90 143 -8 1 -64 -47 -125 -108z"/>
<path d="M1360 2398 c-86 -12 -230 -61 -307 -104 -200 -111 -349 -292 -422
-510 -160 -479 96 -993 575 -1153 128 -43 260 -58 386 -43 362 43 653 277 767
618 160 479 -97 994 -574 1153 -145 48 -278 60 -425 39z m350 -67 c308 -81
545 -323 626 -636 13 -50 18 -107 18 -200 0 -93 -5 -150 -18 -200 -82 -318
-323 -559 -641 -641 -97 -25 -303 -25 -400 0 -318 82 -559 323 -641 641 -25
97 -25 303 0 400 91 354 375 607 741 659 63 9 243 -4 315 -23z"/>
<path d="M1094 2110 c-68 -44 -204 -181 -204 -205 0 -40 33 -22 117 62 48 49
109 100 136 113 35 19 47 31 47 47 0 34 -26 29 -96 -17z"/>
<path d="M802 1728 c-18 -24 -42 -156 -42 -236 0 -99 37 -249 81 -333 34 -64
53 -79 72 -60 8 8 2 31 -26 89 -57 121 -72 182 -71 307 0 68 6 131 15 165 17
59 15 80 -6 80 -7 0 -17 -6 -23 -12z"/>
<path d="M43 1505 c-11 -31 13 -36 168 -33 146 3 154 4 154 23 0 19 -8 20
-158 23 -136 2 -158 0 -164 -13z"/>
<path d="M2623 1505 c-11 -31 13 -36 168 -33 146 3 154 4 154 23 0 19 -8 20
-158 23 -136 2 -158 0 -164 -13z"/>
<path d="M566 601 c-76 -76 -107 -114 -103 -125 4 -9 12 -16 19 -16 7 0 62 49
122 109 94 95 108 112 97 125 -8 9 -16 16 -20 16 -3 0 -55 -49 -115 -109z"/>
<path d="M2289 694 c-11 -13 3 -30 97 -125 60 -60 115 -109 122 -109 7 0 15 7
19 16 4 11 -27 49 -103 125 -60 60 -112 109 -115 109 -4 0 -12 -7 -20 -16z"/>
<path d="M1475 358 c-3 -8 -4 -81 -3 -163 3 -142 4 -150 23 -150 19 0 20 7 20
160 0 144 -2 160 -18 163 -9 2 -19 -3 -22 -10z"/>
</g>
</svg>
